<?xml version="1.0" encoding="UTF-8"?>
<svg width="233px" height="179px" viewBox="0 0 233 179" version="1.1" xmlns="http://www.w3.org/2000/svg" xmlns:xlink="http://www.w3.org/1999/xlink">
    <!-- Generator: Sketch 63.1 (92452) - https://sketch.com -->
    <title>2.空值示例/3.服务器出错@2x</title>
    <desc>Created with Sketch.</desc>
    <defs>
        <polygon id="path-1" points="0.0205015411 0.0268153585 4.90153802 0.0268153585 4.90153802 4.85382853 0.0205015411 4.85382853"></polygon>
        <polygon id="path-3" points="0.0120761991 0.041205614 5.33820487 0.041205614 5.33820487 5.2493748 0.0120761991 5.2493748"></polygon>
        <polygon id="path-5" points="0 0.178732365 6.60720202 0.178732365 6.60720202 13.95561 0 13.95561"></polygon>
        <polygon id="path-7" points="0.0143484162 0.178732365 6.621388 0.178732365 6.621388 13.95561 0.0143484162 13.95561"></polygon>
        <polygon id="path-9" points="0.00781741607 0.0466557576 13.9587511 0.0466557576 13.9587511 6.92907291 0.00781741607 6.92907291"></polygon>
        <polygon id="path-11" points="0 58.5310337 43.0331858 58.5310337 43.0331858 0 0 0"></polygon>
        <polygon id="path-13" points="4.41589237e-06 0 39.5663957 0 39.5663957 39.4791261 4.41589237e-06 39.4791261"></polygon>
    </defs>
    <g id="页面-1" stroke="none" stroke-width="1" fill="none" fill-rule="evenodd">
        <g id="2.空值示例/3.服务器出错" transform="translate(-77.000000, -20.000000)">
            <g id="4.空值类/服务器错误" transform="translate(58.611111, 20.538354)">
                <g id="编组-3" transform="translate(18.891599, 0.047115)">
                    <g id="编组-2" transform="translate(-0.000000, 9.078846)">
                        <g id="编组-2备份" transform="translate(-0.000000, 0.000000)">
                            <g id="编组" transform="translate(0.031670, 128.907668)">
                                <g transform="translate(16.104592, 9.707657)">
                                    <mask id="mask-2" fill="white">
                                        <use xlink:href="#path-1"></use>
                                    </mask>
                                    <g id="Clip-2"></g>
                                    <path d="M4.88860419,2.68661354 C4.75103676,4.01243213 3.55272929,4.97716944 2.21209578,4.84112223 C0.871029655,4.70507502 -0.104487797,3.52000967 0.0335122329,2.19376326 C0.171079661,0.86794466 1.36938713,-0.0967926527 2.71002065,0.0396823818 C4.05065417,0.175729595 5.02617162,1.36079494 4.88860419,2.68661354" id="Fill-1" fill="#E4E6EF" mask="url(#mask-2)"></path>
                                </g>
                                <path d="M36.6696427,3.55704147 C36.5309633,4.89020198 35.3229702,5.86028167 33.9715006,5.72348107 C32.6195949,5.58668048 31.6361925,4.39462247 31.7748719,3.06146196 C31.9139873,1.72830146 33.1219805,0.758221769 34.4734501,0.895452554 C35.8249197,1.03182296 36.808322,2.22388097 36.6696427,3.55704147" id="Fill-3" fill="#E4E6EF"></path>
                                <path d="M4.9077618,2.67467912 C4.7692105,4.00797489 3.56080221,4.97764454 2.20902345,4.84098767 C0.85764629,4.70393469 -0.125867133,3.51244518 0.0130857638,2.17914941 C0.151637063,0.845853637 1.36004535,-0.123816015 2.71142251,0.0128408599 C4.06320127,0.149497735 5.04671469,1.34138335 4.9077618,2.67467912" id="Fill-5" fill="#E4E6EF"></path>
                                <g transform="translate(45.182327, 6.177600)">
                                    <mask id="mask-4" fill="white">
                                        <use xlink:href="#path-3"></use>
                                    </mask>
                                    <g id="Clip-8"></g>
                                    <path d="M5.32438231,2.91114247 C5.17398585,4.3417719 3.86649295,5.38222967 2.40338754,5.23559653 C0.940282125,5.08853837 -0.12379454,3.81006738 0.0261672448,2.37943795 C0.176563702,0.948808514 1.4840566,-0.0916492553 2.94716201,0.0549838862 C4.40983275,0.202042051 5.47434409,1.48051304 5.32438231,2.91114247" id="Fill-7" fill="#E4E6EF" mask="url(#mask-4)"></path>
                                </g>
                                <polygon id="Fill-9" fill="#E4E6EF" points="18.5987335 12.3551999 18.5387407 12.3179774 2.68409861 2.40770063 2.81029031 2.20628569 18.6053534 12.0797536 34.6035643 3.13105737 34.6561097 3.15173652 48.313775 8.50887763 48.226889 8.72931739 34.6213553 3.39285543"></polygon>
                            </g>
                            <g id="编组" transform="translate(50.582194, 38.163349)">
                                <polygon id="Fill-1" fill="#CED0DB" points="14.2661482 0.157209021 8.6658041 17.7763349 12.051687 17.7763349 17.6525639 0.157209021"></polygon>
                                <g transform="translate(0.000000, 2.043717)">
                                    <g>
                                        <mask id="mask-6" fill="white">
                                            <use xlink:href="#path-5"></use>
                                        </mask>
                                        <g id="Clip-3"></g>
                                        <path d="M6.28179077,0.178732365 L2.6280884,0.178732365 L0.325302961,0.178732365 C0.145541671,0.178732365 -0.000108289934,0.323968093 -0.000108289934,0.503218137 L-0.000108289934,2.79945439 L-0.000108289934,11.3348879 L-0.000108289934,13.6311242 C-0.000108289934,13.8103742 0.145541671,13.95561 0.325302961,13.95561 L2.6280884,13.95561 L6.28179077,13.95561 C6.46155206,13.95561 6.60720202,13.8103742 6.60720202,13.6311242 L6.60720202,11.6593737 C6.60720202,11.4801237 6.46155206,11.3348879 6.28179077,11.3348879 L2.6280884,11.3348879 L2.6280884,2.79945439 L6.28179077,2.79945439 C6.46155206,2.79945439 6.60720202,2.65421866 6.60720202,2.47550853 L6.60720202,0.503218137 C6.60720202,0.323968093 6.46155206,0.178732365 6.28179077,0.178732365" id="Fill-2" fill="#E4E6EF" mask="url(#mask-6)"></path>
                                    </g>
                                    <g transform="translate(19.925348, 0.000000)">
                                        <mask id="mask-8" fill="white">
                                            <use xlink:href="#path-7"></use>
                                        </mask>
                                        <g id="Clip-5"></g>
                                        <path d="M6.29624747,0.178732365 L3.99346203,0.178732365 L0.339759667,0.178732365 C0.159998377,0.178732365 0.0143484162,0.323968093 0.0143484162,0.503218137 L0.0143484162,2.47550853 C0.0143484162,2.65421866 0.159998377,2.79945439 0.339759667,2.79945439 L3.99346203,2.79945439 L3.99346203,11.3348879 L0.339759667,11.3348879 C0.159998377,11.3348879 0.0143484162,11.4801237 0.0143484162,11.6593737 L0.0143484162,13.6311242 C0.0143484162,13.8103742 0.159998377,13.95561 0.339759667,13.95561 L3.99346203,13.95561 L6.29624747,13.95561 C6.47600876,13.95561 6.62165872,13.8103742 6.62165872,13.6311242 L6.62165872,11.6593737 L6.62165872,2.47550853 L6.62165872,0.503218137 C6.62165872,0.323968093 6.47600876,0.178732365 6.29624747,0.178732365" id="Fill-4" fill="#E4E6EF" mask="url(#mask-8)"></path>
                                    </g>
                                </g>
                            </g>
                            <g id="编组" transform="translate(221.330630, 0.079464)"></g>
                        </g>
                    </g>
                    <g id="分组" transform="translate(162.149307, 15.176286)">
                        <path d="M21.7174239,54.5825785 L21.0219668,54.5825785 C20.0659103,54.5825785 19.2833239,53.8188407 19.2833239,52.8849557 L19.2833239,39.3047426 C19.2833239,38.3708576 20.0659103,37.6071198 21.0219668,37.6071198 L21.7174239,37.6071198 C22.6734804,37.6071198 23.4560668,38.3708576 23.4560668,39.3047426 L23.4560668,52.8849557 C23.4560668,53.8188407 22.6734804,54.5825785 21.7174239,54.5825785" id="Fill-1" fill="#393D65"></path>
                        <path d="M42.3793615,55.0897097 L42.3793615,55.0897097 C42.3793615,56.2149141 41.445383,57.1268571 40.29299,57.1268571 L2.74027468,57.1268571 C1.58788166,57.1268571 0.6539032,56.2149141 0.6539032,55.0897097 C0.6539032,53.9648902 1.58788166,53.0525622 2.74027468,53.0525622 L40.29299,53.0525622 C41.445383,53.0525622 42.3793615,53.9648902 42.3793615,55.0897097" id="Fill-3" fill="#393D65"></path>
                        <g transform="translate(14.386608, 51.601961)">
                            <mask id="mask-10" fill="white">
                                <use xlink:href="#path-9"></use>
                            </mask>
                            <g id="Clip-6"></g>
                            <path d="M12.9155654,6.9291499 L1.0506089,6.9291499 C0.476975023,6.9291499 0.00781741607,6.47067624 0.00781741607,5.91057618 L0.00781741607,1.06484453 C0.00781741607,0.504744467 0.476975023,0.0466557576 1.0506089,0.0466557576 L12.9155654,0.0466557576 C13.4891993,0.0466557576 13.9587511,0.504744467 13.9587511,1.06484453 L13.9587511,5.91057618 C13.9587511,6.47067624 13.4891993,6.9291499 12.9155654,6.9291499" id="Fill-5" fill="#ADC6FF" mask="url(#mask-10)"></path>
                        </g>
                        <line x1="16.1268788" y1="52.6522158" x2="16.1268788" y2="57.5275885" id="Stroke-7" stroke="#597EF7" stroke-width="0.5" stroke-linecap="round" stroke-linejoin="round"></line>
                        <line x1="26.4391996" y1="52.6522158" x2="26.4391996" y2="57.5275885" id="Stroke-9" stroke="#597EF7" stroke-width="0.5" stroke-linecap="round" stroke-linejoin="round"></line>
                        <mask id="mask-12" fill="white">
                            <use xlink:href="#path-11"></use>
                        </mask>
                        <g id="Clip-12"></g>
                        <polygon id="Fill-11" fill="#393D65" mask="url(#mask-12)" points="1.9558747 45.4701162 41.0769169 45.4701162 41.0769169 0.850351226 1.9558747 0.850351226"></polygon>
                        <path d="M1.78031513,45.8550647 C0.800997908,45.8550647 -0.000118275027,45.0728494 -0.000118275027,44.1170223 L-0.000118275027,33.841977 C-0.000118275027,32.8861499 0.800997908,32.1039346 1.78031513,32.1039346 L41.2530284,32.1039346 C42.2319514,32.1039346 43.0334618,32.8861499 43.0334618,33.841977 L43.0334618,44.1170223 C43.0334618,45.0728494 42.2319514,45.8550647 41.2530284,45.8550647 L1.78031513,45.8550647 Z" id="Fill-13" fill="#ADC6FF" mask="url(#mask-12)"></path>
                        <path d="M1.78031513,13.7513611 C0.800997908,13.7513611 -0.000118275027,12.9691458 -0.000118275027,12.0129337 L-0.000118275027,1.73827342 C-0.000118275027,0.782446311 0.800997908,-0.000153979398 1.78031513,-0.000153979398 L41.2530284,-0.000153979398 C42.2319514,-0.000153979398 43.0334618,0.782446311 43.0334618,1.73827342 L43.0334618,12.0129337 C43.0334618,12.9691458 42.2319514,13.7513611 41.2530284,13.7513611 L1.78031513,13.7513611 Z" id="Fill-14" fill="#ADC6FF" mask="url(#mask-12)"></path>
                        <path d="M4.98797329,8.17938562 L4.98797329,8.17938562 C4.25072562,8.17938562 3.65304249,7.59541876 3.65304249,6.87556507 C3.65304249,6.15571138 4.25072562,5.57212947 4.98797329,5.57212947 C5.72561521,5.57212947 6.32329835,6.15571138 6.32329835,6.87556507 C6.32329835,7.59541876 5.72561521,8.17938562 4.98797329,8.17938562" id="Fill-15" fill="#FFFFFF" mask="url(#mask-12)"></path>
                        <path d="M7.7680278,6.87556507 C7.7680278,6.15571138 8.36571094,5.57212947 9.10335286,5.57212947 C9.84060053,5.57212947 10.4386779,6.15571138 10.4386779,6.87556507 C10.4386779,7.59541876 9.84060053,8.17938562 9.10335286,8.17938562 C8.36571094,8.17938562 7.7680278,7.59541876 7.7680278,6.87556507 Z" id="Fill-16" fill="#FFFFFF" mask="url(#mask-12)"></path>
                        <path d="M13.2187324,8.17938562 L13.2187324,8.17938562 C12.4810905,8.17938562 11.8834074,7.59541876 11.8834074,6.87556507 C11.8834074,6.15571138 12.4810905,5.57212947 13.2187324,5.57212947 C13.9559801,5.57212947 14.5536632,6.15571138 14.5536632,6.87556507 C14.5536632,7.59541876 13.9559801,8.17938562 13.2187324,8.17938562" id="Fill-17" fill="#FFFFFF" mask="url(#mask-12)"></path>
                        <path d="M27.389224,8.17938562 C27.1857909,8.17938562 27.0209944,8.01847715 27.0209944,7.81984373 L27.0209944,5.93167136 C27.0209944,5.73303794 27.1857909,5.57212947 27.389224,5.57212947 L40.0044384,5.57212947 C40.2078714,5.57212947 40.372668,5.73303794 40.372668,5.93167136 L40.372668,7.81984373 C40.372668,8.01847715 40.2078714,8.17938562 40.0044384,8.17938562 L27.389224,8.17938562 Z" id="Fill-18" fill="#597EF7" mask="url(#mask-12)"></path>
                        <path d="M1.78031513,29.8032129 C0.800997908,29.8032129 -0.000118275027,29.0209976 -0.000118275027,28.0647855 L-0.000118275027,17.7901252 C-0.000118275027,16.8342981 0.800997908,16.0516978 1.78031513,16.0516978 L41.2530284,16.0516978 C42.2319514,16.0516978 43.0334618,16.8342981 43.0334618,17.7901252 L43.0334618,28.0647855 C43.0334618,29.0209976 42.2319514,29.8032129 41.2530284,29.8032129 L1.78031513,29.8032129 Z" id="Fill-19" fill="#ADC6FF" mask="url(#mask-12)"></path>
                        <path d="M4.98797329,24.6970251 L4.98797329,24.6970251 C4.25072562,24.6970251 3.65304249,24.1134432 3.65304249,23.3932046 C3.65304249,22.6733509 4.25072562,22.089769 4.98797329,22.089769 C5.72561521,22.089769 6.32329835,22.6733509 6.32329835,23.3932046 C6.32329835,24.1134432 5.72561521,24.6970251 4.98797329,24.6970251" id="Fill-20" fill="#FF7A46" mask="url(#mask-12)"></path>
                        <path d="M9.10335286,24.6970251 L9.10335286,24.6970251 C8.36571094,24.6970251 7.7680278,24.1134432 7.7680278,23.3932046 C7.7680278,22.6733509 8.36571094,22.089769 9.10335286,22.089769 C9.84060053,22.089769 10.4386779,22.6733509 10.4386779,23.3932046 C10.4386779,24.1134432 9.84060053,24.6970251 9.10335286,24.6970251" id="Fill-21" fill="#393D65" mask="url(#mask-12)"></path>
                        <path d="M13.2187324,24.6970251 L13.2187324,24.6970251 C12.4810905,24.6970251 11.8834074,24.1134432 11.8834074,23.3932046 C11.8834074,22.6733509 12.4810905,22.089769 13.2187324,22.089769 C13.9559801,22.089769 14.5536632,22.6733509 14.5536632,23.3932046 C14.5536632,24.1134432 13.9559801,24.6970251 13.2187324,24.6970251" id="Fill-22" fill="#393D65" mask="url(#mask-12)"></path>
                        <path d="M39.9276385,24.6970251 L27.4661816,24.6970251 C27.2201696,24.6970251 27.0210733,24.5026261 27.0210733,24.2624183 L27.0210733,22.5239909 C27.0210733,22.2841679 27.2201696,22.089769 27.4661816,22.089769 L39.9276385,22.089769 C40.1736505,22.089769 40.3727468,22.2841679 40.3727468,22.5239909 L40.3727468,24.2624183 C40.3727468,24.5026261 40.1736505,24.6970251 39.9276385,24.6970251" id="Fill-23" fill="#FF7A46" mask="url(#mask-12)"></path>
                        <path d="M3.65304249,39.0755058 C3.65304249,38.3556521 4.25072562,37.7720702 4.98797329,37.7720702 C5.72561521,37.7720702 6.32329835,38.3556521 6.32329835,39.0755058 C6.32329835,39.7953595 5.72561521,40.3793264 4.98797329,40.3793264 C4.25072562,40.3793264 3.65304249,39.7953595 3.65304249,39.0755058 Z" id="Fill-24" fill="#FFFFFF" mask="url(#mask-12)"></path>
                        <path d="M9.10335286,40.3793264 L9.10335286,40.3793264 C8.36571094,40.3793264 7.7680278,39.7953595 7.7680278,39.0755058 C7.7680278,38.3556521 8.36571094,37.7720702 9.10335286,37.7720702 C9.84060053,37.7720702 10.4386779,38.3556521 10.4386779,39.0755058 C10.4386779,39.7953595 9.84060053,40.3793264 9.10335286,40.3793264" id="Fill-25" fill="#FFFFFF" mask="url(#mask-12)"></path>
                        <path d="M13.2187324,40.3793264 L13.2187324,40.3793264 C12.4810905,40.3793264 11.8834074,39.7953595 11.8834074,39.0755058 C11.8834074,38.3556521 12.4810905,37.7720702 13.2187324,37.7720702 C13.9559801,37.7720702 14.5536632,38.3556521 14.5536632,39.0755058 C14.5536632,39.7953595 13.9559801,40.3793264 13.2187324,40.3793264" id="Fill-26" fill="#FFFFFF" mask="url(#mask-12)"></path>
                        <path d="M39.9276385,40.3793264 L27.4661816,40.3793264 C27.2201696,40.3793264 27.0210733,40.1845424 27.0210733,39.9447195 L27.0210733,38.2062921 C27.0210733,37.9664692 27.2201696,37.7720702 27.4661816,37.7720702 L39.9276385,37.7720702 C40.1736505,37.7720702 40.3727468,37.9664692 40.3727468,38.2062921 L40.3727468,39.9447195 C40.3727468,40.1845424 40.1736505,40.3793264 39.9276385,40.3793264" id="Fill-27" fill="#597EF7" mask="url(#mask-12)"></path>
                    </g>
                    <g id="分组" transform="translate(192.609756, 0.000000)">
                        <g>
                            <mask id="mask-14" fill="white">
                                <use xlink:href="#path-13"></use>
                            </mask>
                            <g id="Clip-2"></g>
                            <path d="M19.7832022,-4.4062359e-06 C8.8572247,-4.4062359e-06 4.41589237e-06,8.83768096 4.41589237e-06,19.7395609 C4.41589237e-06,30.6413967 8.8572247,39.4791261 19.7832022,39.4791261 C30.7091798,39.4791261 39.5664001,30.6413967 39.5664001,19.7395609 C39.5664001,8.83768096 30.7091798,-4.4062359e-06 19.7832022,-4.4062359e-06" id="Fill-1" fill="#FF4D4F" mask="url(#mask-14)"></path>
                        </g>
                        <path d="M20.5910853,25.3794366 L19.8845426,25.3794366 C19.299216,25.3794366 18.8247284,24.9059955 18.8247284,24.3219599 L18.8247284,10.9272549 C18.8247284,10.3432194 19.299216,9.86977822 19.8845426,9.86977822 L20.5910853,9.86977822 C21.1764119,9.86977822 21.6508995,10.3432194 21.6508995,10.9272549 L21.6508995,24.3219599 C21.6508995,24.9059955 21.1764119,25.3794366 20.5910853,25.3794366" id="Fill-3" fill="#FFFFFF"></path>
                        <path d="M20.5910853,29.7143333 L19.8845426,29.7143333 C19.299216,29.7143333 18.8247284,29.2408922 18.8247284,28.6568566 L18.8247284,27.9518721 C18.8247284,27.3678365 19.299216,26.8943954 19.8845426,26.8943954 L20.5910853,26.8943954 C21.1764119,26.8943954 21.6508995,27.3678365 21.6508995,27.9518721 L21.6508995,28.6568566 C21.6508995,29.2408922 21.1764119,29.7143333 20.5910853,29.7143333" id="Fill-5" fill="#FFFFFF"></path>
                    </g>
                </g>
            </g>
            <g id="1.人物组件/4.商务拓展/站立/摸头" transform="translate(148.333333, 39.507671)">
                <g id="分组" transform="translate(0.000000, 0.181311)">
                    <path d="M57.5085,69.7852201 C45.961,89.6286008 30.7335,81.9425381 26.0843333,77.2514669 C20.8185,71.9392494 14.6951667,73.0225088 12.3968333,66.2748268 C9.76683333,58.5546259 15.4518333,53.1674711 14.0643333,49.7303498 C9.711,36.3757013 19.676,40.6537849 17.6635,32.3607305 C14.301,18.5023372 16.4693333,18.6422201 21.816,8.30254644 C28.1935,-4.03045774 36.0976667,1.02697322 36.0976667,1.02697322 C36.0976667,1.02697322 46.4018333,-2.14203933 51.9543333,11.6072787 C52.9585,14.0935297 56.4993333,15.3982703 56.9726667,21.7887515 C58.181,38.0742787 67.0851667,38.81699 69.5218333,49.8261029 C72.0651667,61.3189774 61.3185,62.9725925 57.5085,69.7852201" id="Fill-1" fill="#591A1A"></path>
                    <path d="M50.4430833,24.4570167 C50.8330833,20.3879247 47.8739167,21.0173975 47.8739167,21.0173975 C47.8739167,21.0173975 46.68975,25.2971464 46.79225,28.6943013 C51.01225,28.475318 50.4430833,24.4570167 50.4430833,24.4570167" id="Fill-3" fill="#F4B784"></path>
                    <path d="M21.5351667,26.2434372 C20.6468333,22.252613 24.4926667,22.4616046 24.4926667,22.4616046 C24.4926667,22.4616046 26.1951667,26.5640021 26.5126667,29.9470021 C22.2976667,30.249249 21.5351667,26.2434372 21.5351667,26.2434372" id="Fill-5" fill="#F4B784"></path>
                    <path d="M37.6619167,53.439077 L37.6619167,53.439077 C33.95525,53.6680519 30.8019167,50.7713113 29.8869167,47.1135414 L29.5669167,32.7996962 L42.31775,32.0120226 L43.7660833,46.2559264 C44.1410833,49.9470017 41.3685833,53.2101021 37.6619167,53.439077" id="Fill-7" fill="#F4B784"></path>
                    <line x1="36.29675" y1="33.6326653" x2="37.40175" y2="33.4902845" id="Stroke-9" stroke="#DD936F" stroke-width="0.639166667" stroke-linecap="round" stroke-linejoin="round"></line>
                    <path d="M47.6993333,23.8105582 C47.2376667,32.8821272 43.4668333,38.7522109 37.1293333,39.1443824 C30.7918333,39.5357213 25.9435,33.2326669 24.7493333,25.2285372 C22.7518333,11.8464117 28.8226667,7.71320669 35.1601667,7.32103515 C41.4976667,6.92969623 48.4051667,9.95133222 47.6993333,23.8105582" id="Fill-11" fill="#FFC999"></path>
                    <path d="M48.4505,13.2335 C46.708,7.87798536 43.7155,2.56493515 35.8405,4.46084728 C25.9196667,-0.0936715481 12.4505,22.5515293 21.4688333,22.9378724 C29.9538333,23.3017343 28.5705,16.7705377 30.0855,12.3325879 C31.4788333,8.25350418 34.7713333,12.5132699 34.7713333,12.5132699 C34.7713333,12.5132699 36.3213333,10.5382573 38.2388333,11.1244331 C41.4513333,12.1061109 38.4363333,18.5498808 46.6396667,21.9578598 C47.638,22.3733452 47.138,27.8445962 47.4463333,27.3883117 C48.8821667,25.2642573 50.1921667,18.5873494 48.4505,13.2335" id="Fill-13" fill="#591A1A"></path>
                    <line x1="26.796" y1="17.8601251" x2="32.4776667" y2="18.5020874" id="Stroke-15" stroke="#253368" stroke-width="0.833333333" stroke-linecap="round" stroke-linejoin="round"></line>
                    <line x1="37.73475" y1="18.1776925" x2="44.45725" y2="17.0819435" id="Stroke-17" stroke="#253368" stroke-width="0.833333333" stroke-linecap="round" stroke-linejoin="round"></line>
                    <polyline id="Stroke-19" stroke="#DD936F" stroke-width="0.639166667" stroke-linecap="round" stroke-linejoin="round" points="33.3031667 19.1802695 34.284 21.1044912 34.3956667 27.9604159 36.2656667 28.6273573"></polyline>
                    <path d="M28.33325,23.7032314 C28.2649167,22.6049845 28.9440833,21.6691017 29.8490833,21.6133151 C30.7549167,21.5566958 31.5440833,22.402654 31.6115833,23.5009008" id="Stroke-21" stroke="#253368" stroke-width="0.833333333" stroke-linecap="round" stroke-linejoin="round"></path>
                    <path d="M39.5739167,23.008813 C39.5055833,21.9105661 40.18475,20.9746833 41.08975,20.9188967 C41.9955833,20.8622774 42.78475,21.7082356 42.8530833,22.8056498" id="Stroke-23" stroke="#253368" stroke-width="0.833333333" stroke-linecap="round" stroke-linejoin="round"></path>
                    <path d="M39.1600833,30.2496653 C36.38925,30.4211883 33.37425,30.4503305 33.37425,30.4503305 C33.37425,30.4503305 33.94175,32.6593138 36.4000833,32.5069414 C39.0934167,32.3404142 39.1600833,30.2496653 39.1600833,30.2496653 Z" id="Stroke-25" stroke="#B53026" stroke-width="0.833333333" stroke-linecap="round" stroke-linejoin="round"></path>
                    <line x1="35.82925" y1="34.6685477" x2="37.4684167" y2="34.5669661" id="Stroke-27" stroke="#DD936F" stroke-width="0.639166667" stroke-linecap="round" stroke-linejoin="round"></line>
                    <path d="M48.75725,27.4256971 C48.6705833,27.2008854 48.3455833,27.2275297 48.29725,27.4639983 C47.8689167,29.5489188 46.9164167,35.1508937 49.06975,35.1483967 C51.4980833,35.1450653 49.54475,29.4789774 48.75725,27.4256971" id="Fill-29" fill="#FFFFFF"></path>
                    <path d="M24.4530833,28.9275226 C24.3664167,28.7027109 24.0414167,28.7293552 23.9930833,28.9658238 C23.56475,31.0507444 22.61225,36.6527192 24.7655833,36.6502222 C27.1939167,36.6468908 25.2405833,30.9808029 24.4530833,28.9275226" id="Fill-31" fill="#FFFFFF"></path>
                    <path d="M7.81241667,107.499384 L7.81241667,107.499384 C3.95991667,106.833275 1.35158333,102.969011 1.86825,98.6909276 L5.55658333,63.2447812 C6.24491667,57.5470531 9.73158333,53.2747979 14.3040833,54.3522289 C19.3765833,55.2289946 21.28075,61.5187268 20.1140833,67.0707435 L16.4024167,101.062275 C15.5049167,105.3312 11.71325,108.173819 7.81241667,107.499384" id="Fill-33" fill="#FFC999"></path>
                    <path d="M19.0205,82.5308787 L3.66966667,78.5691967 L4.8155,63.7932385 C6.798,54.3436527 11.3446667,54.3095146 17.2196667,53.0439079 L23.848,52.4685565 C29.3738333,53.3195105 25.3821667,60.2745188 24.433,65.7782427 L19.0205,82.5308787 Z" id="Fill-35" fill="#E70020"></path>
                    <polyline id="Stroke-37" stroke="#990A00" stroke-width="0.625" stroke-linecap="round" stroke-linejoin="round" points="3.82641667 78.882018 19.0205833 82.5306289 19.60225 80.5264741"></polyline>
                    <path d="M93.6124167,39.3403849 C91.4015833,35.9432301 86.71075,36.4045105 82.97575,38.5593724 L52.47325,53.4069372 C47.49825,56.2762008 45.7799167,62.8673473 48.72575,67.3927238 C51.6365833,71.8656444 58.23325,71.2253473 62.87575,67.959749 L89.85825,51.6875439 C98.4615833,44.8108033 93.6124167,39.3403849 93.6124167,39.3403849" id="Fill-39" fill="#FFC999"></path>
                    <path d="M72.1044167,62.7838339 L66.5510833,46.3734113 L48.56275,52.4683067 C43.4019167,54.6156749 40.1185833,65.8321142 43.2385833,70.1210222 L41.95025,70.1751435 C44.19025,75.2925243 54.3535833,71.6772188 59.4344167,69.348336 L72.1044167,62.7838339 Z" id="Fill-41" fill="#E70020"></path>
                    <path d="M4.76475,209.072481 C5.63225,175.491439 7.26391667,134.056142 10.3230833,126.719786 C10.3230833,126.719786 14.07725,122.290163 25.33975,129.323439 C38.4714167,137.524071 37.28225,149.484887 37.28225,149.484887 L37.4464167,210.223184 C37.1780833,214.663631 36.7130833,228.454581 19.5514167,228.454581 C2.65808333,228.454581 4.74641667,209.803535 4.76475,209.072481" id="Fill-49" fill="#CCD7EE"></path>
                    <path d="M71.9351667,212.823423 C71.0676667,179.242381 69.436,137.807084 66.3768333,130.471561 C66.3768333,130.471561 62.6226667,126.041105 51.3601667,133.074381 C38.2285,141.275013 39.4185,153.235828 39.4185,153.235828 L39.2535,213.974126 C39.5218333,218.415406 39.9868333,232.205523 57.1485,232.205523 C74.0418333,232.205523 71.9543333,213.554477 71.9351667,212.823423" id="Fill-57" fill="#CCD7EE"></path>
                    <path d="M68.2535,139.61407 C68.2535,139.61407 67.2601667,120.390171 54.3801667,110.358572 L19.9585,110.232012 C19.9585,110.232012 8.106,120.787338 8.106,140.551618 C8.106,140.551618 14.126,141.712313 21.1168333,146.25684 C25.6768333,149.221024 30.7743333,153.289284 38.741,153.289284 C46.8626667,153.289284 51.1243333,149.59571 55.7393333,146.569079 C62.5901667,142.077008 68.2535,139.61407 68.2535,139.61407" id="Fill-59" fill="#CCD7EE"></path>
                    <polygon id="Fill-61" fill="#CCD7EE" points="19.7875833 110.551494 54.4950833 110.359155 52.9650833 105.238444 21.5475833 105.27508"></polygon>
                    <line x1="53.3906667" y1="110.275808" x2="20.8456667" y2="110.275808" id="Stroke-63" stroke="#A3B5D6" stroke-width="0.625" stroke-linecap="round" stroke-linejoin="round"></line>
                    <line x1="37.646" y1="105.151933" x2="37.646" y2="151.623845" id="Stroke-65" stroke="#A3B5D6" stroke-width="0.625" stroke-linecap="round" stroke-linejoin="round"></line>
                    <path d="M53.5685,50.8276808 C51.4568333,51.0624841 47.9268333,51.7768858 45.8251667,49.8901326 C44.5826667,48.7735678 44.6526667,45.2789946 44.6526667,45.2789946 L28.801,45.2282038 C28.801,45.2282038 28.8451667,49.3714004 27.6026667,50.4879653 C25.501,52.375551 20.016,52.3514046 16.6526667,53.5087686 C10.7735,55.5320741 12.356,66.5911452 14.8585,73.3113502 C15.4376667,74.865049 14.4393333,77.7934297 15.4068333,79.9532874 C16.3793333,82.1273 17.8576667,84.7592623 18.4443333,86.1664172 C20.3718333,90.7875469 19.976,95.7658774 21.2201667,99.9590322 C21.2201667,99.9590322 19.2385,103.788325 22.366,105.342856 L52.4035,105.342856 C56.1543333,103.63179 53.5493333,99.9590322 53.5493333,99.9590322 C54.7368333,95.9573837 54.016,92.7309192 55.7751667,86.8699946 C56.1276667,85.6976431 57.451,83.8400322 58.5785,81.3604423 C60.3385,77.4920155 59.9268333,73.7934464 59.7518333,72.8425762 C58.0268333,63.4870782 59.5085,50.1682331 53.5685,50.8276808" id="Fill-67" fill="#E70020"></path>
                    <line x1="32.2216667" y1="52.3685569" x2="41.6341667" y2="51.858151" id="Stroke-69" stroke="#990A00" stroke-width="0.625" stroke-linecap="round" stroke-linejoin="round"></line>
                    <path d="M17.5178333,64.2466921 C17.5178333,64.2466921 14.5245,70.5414201 15.172,77.4922653 C15.4478333,80.4539515 16.5678333,82.7853322 18.5611667,86.0226209 C18.5611667,86.0226209 20.617,97.6928469 21.2195,99.959282 C19.747,102.57709 21.267,105.178244 22.3653333,105.342274 L52.502,105.342274 C52.502,105.342274 55.2936667,103.983412 53.5495,99.959282 C55.1886667,91.4414159 55.9036667,86.3348594 55.9036667,86.3348594 C58.5086667,82.5630184 59.5786667,79.633805 59.752,76.4373155 C60.1061667,69.9211063 56.9478333,64.5589305 56.9478333,64.5589305" id="Stroke-71" stroke="#990A00" stroke-width="0.625" stroke-linecap="round" stroke-linejoin="round"></path>
                    <line x1="18.22175" y1="76.2027619" x2="55.2934167" y2="76.2027619" id="Stroke-73" stroke="#990A00" stroke-width="0.625" stroke-linecap="round" stroke-linejoin="round"></line>
                    <polyline id="Stroke-75" stroke="#990A00" stroke-width="0.625" stroke-linecap="round" stroke-linejoin="round" points="66.5515 46.3734113 71.8698333 62.7838339 59.434 69.5831393"></polyline>
                    <path d="M12.3416667,139.30791 C10.1433333,131.931588 3.355,112.566973 1.83166667,102.052446 C1.83166667,102.052446 0.525,95.9767008 8.75333333,94.9017678 C16.7766667,93.8543117 17.0825,105.099893 17.0825,105.099893 C18.3475,117.715161 20.375,131.673471 21.2866667,138.688429 C21.2866667,138.688429 21.6191667,142.470262 17.7958333,143.833287 C13.2591667,145.450266 12.3416667,139.30791 12.3416667,139.30791" id="Fill-77" fill="#FFC999"></path>
                    <path d="M46.5266667,184.31738 L5.3075,182.448113 C4.215,182.398987 3.37,181.473928 3.41916667,180.382343 L4.7325,151.478217 C4.78166667,150.386631 5.7075,149.541506 6.8,149.590631 L48.0191667,151.460732 C49.1116667,151.509857 49.9566667,152.434916 49.9075,153.526502 L48.5941667,182.430627 C48.545,183.522213 47.6191667,184.367338 46.5266667,184.31738" id="Fill-79" fill="#B53026"></path>
                    <path d="M45.12325,184.254017 L3.90491667,182.384749 C2.81241667,182.335623 1.96658333,181.409732 2.01575,180.318979 L3.32908333,151.414854 C3.37825,150.323268 4.30491667,149.478142 5.39741667,149.527268 L46.61575,151.396536 C47.70825,151.446494 48.5540833,152.37072 48.5040833,153.463138 L47.19075,182.367264 C47.1415833,183.458849 46.21575,184.303975 45.12325,184.254017" id="Fill-81" fill="#FF7A46"></path>
                    <path d="M28.4626667,150.580636 C25.9085,150.394125 23.8876667,150.580636 22.8001667,150.53151 C19.991,150.405782 20.7668333,159.820397 20.2035,161.304154 C19.346,163.562263 14.0343333,162.27251 11.9901667,153.790447 C11.4093333,151.378301 11.5735,147.784644 11.5693333,144.368338 C11.5693333,144.368338 12.2726667,136.162711 15.5576667,135.693937 C18.4068333,135.286778 20.8101667,138.327564 20.8101667,138.327564 C20.8101667,138.327564 23.8343333,142.553192 25.3826667,146.395807 L28.4626667,150.580636 Z" id="Fill-83" fill="#FFC999"></path>
                    <path d="M18.2275,152.998444 C18.2275,152.998444 17.5591667,156.937645 18.215,161.219892" id="Stroke-85" stroke="#DD936F" stroke-width="0.625" stroke-linecap="round" stroke-linejoin="round"></path>
                    <path d="M16.0969167,160.561693 C16.0969167,160.561693 14.4735833,157.078777 15.54025,152.092952" id="Stroke-87" stroke="#DD936F" stroke-width="0.625" stroke-linecap="round" stroke-linejoin="round"></path>
                    <path d="M13.1375833,150.45982 C13.1375833,150.45982 12.86425,152.961891 13.4525833,157.080941" id="Stroke-89" stroke="#DD936F" stroke-width="0.625" stroke-linecap="round" stroke-linejoin="round"></path>
                    <path d="M61.9066667,19.7323071 L54.445,14.5624703 C54.445,14.5624703 51.0116667,5.58415649 49.2283333,4.16701004 C47.4441667,2.7498636 45.0866667,2.98383431 43.1141667,2.060441 C41.1416667,1.13788033 41.55,3.33437406 44.01,4.61247029 C46.4708333,5.89139916 47.4816667,5.76816904 48.0433333,8.30521088 C48.605,10.8422527 48.0258333,20.6815121 51.6433333,22.3451188 C52.9233333,23.5599347 53.4491667,23.6506921 54.2375,24.3592653 C55.9575,25.9029724 58.6658333,25.7156293 60.07,23.8804996 C60.1041667,23.8363699 60.1383333,23.7914075 60.1716667,23.7456126 C61.6216667,21.7930812 64.0441667,20.8946669 61.9066667,19.7323071" id="Fill-91" fill="#FFC999"></path>
                    <path d="M42.8523333,1.8623569 C40.8798333,0.939796234 41.2881667,3.13545732 43.7481667,4.41438619 C46.209,5.69331506 47.654,6.10713515 48.2156667,8.64500962 C48.5473333,10.1437544 48.879,15.0529762 49.1006667,18.2569594 C49.2781667,20.8406289 50.8881667,21.8281351 53.2556667,23.5550222" id="Stroke-93" stroke="#DD936F" stroke-width="0.5" stroke-linecap="round" stroke-linejoin="round"></path>
                    <path d="M53.74425,23.933705 L57.9859167,17.1602113 L91.11675,36.8587134 C94.66425,38.968613 95.8000833,43.7471109 93.6100833,47.3499268 C91.41925,50.9527427 86.1700833,51.9727218 82.8275833,49.5256046 L53.74425,23.933705 Z" id="Fill-95" fill="#FFC999"></path>
                    <line x1="81.5335833" y1="48.6127858" x2="54.6294167" y2="24.7760828" id="Stroke-97" stroke="#DD936F" stroke-width="0.625" stroke-linecap="round" stroke-linejoin="round"></line>
                </g>
            </g>
        </g>
    </g>
</svg>